<svg version="1.1" xmlns="http://www.w3.org/2000/svg" xmlns:xlink="http://www.w3.org/1999/xlink" width="193.13683" height="52.288" viewBox="0,0,193.13683,52.288"><defs><linearGradient x1="143.43142" y1="179.9997" x2="336.56826" y2="179.9997" gradientUnits="userSpaceOnUse" id="color-1"><stop offset="0" stop-color="#fbb040"/><stop offset="1" stop-color="#f15a29"/></linearGradient><linearGradient x1="150.67872" y1="179.9987" x2="329.31919" y2="179.9987" gradientUnits="userSpaceOnUse" id="color-2"><stop offset="0" stop-color="#ed7340"/><stop offset="0.5181" stop-color="#f4aa46"/><stop offset="1" stop-color="#f29746"/></linearGradient></defs><g transform="translate(-143.43158,-153.856)"><g stroke-miterlimit="10"><path d="M336.56842,180c0,14.415 -18.87913,26.144 -42.0813,26.144h-108.97907c-23.20056,0 -42.07647,-11.728 -42.07647,-26.144c0,-14.416 18.8743,-26.144 42.07647,-26.144h108.97907c23.20217,0 42.07969,11.727 42.0813,26.144z" fill="url(#color-1)" stroke="none"/><path d="M329.31935,179.998c0,11.953 -15.59419,21.641 -34.83223,21.641h-108.97907c-19.23643,0 -34.82901,-9.688 -34.82901,-21.641v0c0,-11.951 15.59258,-21.64 34.82901,-21.64h108.97907c19.23643,0 34.83223,9.689 34.83223,21.64z" fill="url(#color-2)" stroke="none"/><text transform="translate(149.62577,184.34455) scale(0.37656,0.37656)" font-size="40" xml:space="preserve" fill="#000000" stroke="#ffffff" font-family="Sans Serif" font-weight="normal" text-anchor="start"><tspan x="0" dy="0">スタッフをお呼びください</tspan></text></g></g></svg>